PathFileType	4	(X/Y/Z)	 2.5Hzhigh3min.trc
DataRate	CameraRate	NumFrames	NumMarkers	Units	OrigDataRate	OrigDataStartFrame	OrigNumFrames
200	200	11	35	m	200	501	1000
Frame#	Time	C7			LSH			RSH			MAN			RASI			LASI			HIPR			HIPL			RPSI			LPSI			COX			RTHI1			RTHI2			RTHI3			RTHI4			RSHA1			RSHA2			RSHA3			RSHA4			RHEEL			RMET5			RMET1			RTOE			LTHI1			LTHI2			LTHI3			LTHI4			LSHA1			LSHA2			LSHA3			LSHA4			LHEEL			LMET5			LMET1			LTOE			
		X1	Y1	Z1	X2	Y2	Z2	X3	Y3	Z3	X4	Y4	Z4	X5	Y5	Z5	X6	Y6	Z6	X7	Y7	Z7	X8	Y8	Z8	X9	Y9	Z9	X10	Y10	Z10	X11	Y11	Z11	X12	Y12	Z12	X13	Y13	Z13	X14	Y14	Z14	X15	Y15	Z15	X16	Y16	Z16	X17	Y17	Z17	X18	Y18	Z18	X19	Y19	Z19	X20	Y20	Z20	X21	Y21	Z21	X22	Y22	Z22	X23	Y23	Z23	X24	Y24	Z24	X25	Y25	Z25	X26	Y26	Z26	X27	Y27	Z27	X28	Y28	Z28	X29	Y29	Z29	X30	Y30	Z30	X31	Y31	Z31	X32	Y32	Z32	X33	Y33	Z33	X34	Y34	Z34	X35	Y35	Z35	
501	2.5050	-0.244571	1.617733	-0.556317	-0.203447	1.589806	-0.793554	-0.184708	1.588933	-0.353922	-0.096495	1.559439	-0.575657	-0.083184	1.096745	-0.455005	-0.094336	1.088418	-0.681465	-0.146723	1.157963	-0.403090	-0.178068	1.151859	-0.728378	-0.270369	1.122773	-0.499463	-0.278566	1.119736	-0.608737	-0.280273	1.126909	-0.553173	-0.148577	0.892752	-0.365855	-0.132794	0.835613	-0.355857	-0.070568	0.845971	-0.371272	-0.078574	0.905894	-0.383643	-0.259467	0.340121	-0.342996	-0.276010	0.301523	-0.350895	-0.218017	0.284755	-0.357168	-0.205905	0.323143	-0.352464	-0.384610	0.094579	-0.398796	-0.211146	0.025305	-0.329359	-0.165498	0.041116	-0.423215	-0.133735	0.029787	-0.420897	-0.164594	0.837709	-0.764182	-0.139507	0.781850	-0.773236	-0.078004	0.803315	-0.772769	-0.095267	0.859374	-0.764519	-0.274572	0.321697	-0.765680	-0.291920	0.285660	-0.758180	-0.232591	0.264337	-0.756389	-0.222600	0.306919	-0.765339	-0.396436	0.097888	-0.700741	-0.227588	0.025575	-0.784619	-0.179351	0.041383	-0.706300	-0.145120	0.029603	-0.710424	
502	2.5100	-0.244436	1.618497	-0.556481	-0.203473	1.590499	-0.793778	-0.184556	1.589517	-0.354009	-0.096378	1.560480	-0.575932	-0.082862	1.097659	-0.455166	-0.094170	1.089411	-0.681547	-0.145939	1.159238	-0.403137	-0.177591	1.153270	-0.728552	-0.270051	1.123965	-0.499363	-0.278297	1.120837	-0.608656	-0.280034	1.127906	-0.553155	-0.148960	0.893598	-0.365866	-0.133355	0.836431	-0.355911	-0.071079	0.846606	-0.371246	-0.078900	0.906548	-0.383633	-0.260224	0.340693	-0.343405	-0.276669	0.301947	-0.351345	-0.218593	0.285318	-0.357427	-0.206587	0.323848	-0.352742	-0.384559	0.094916	-0.399294	-0.211276	0.025404	-0.329573	-0.165525	0.041079	-0.423233	-0.133725	0.029786	-0.420861	-0.165064	0.838562	-0.763912	-0.140108	0.782638	-0.772907	-0.078560	0.803988	-0.772643	-0.095697	0.860115	-0.764453	-0.275109	0.322207	-0.764933	-0.292365	0.286129	-0.757411	-0.232984	0.264942	-0.755828	-0.223113	0.307542	-0.764730	-0.396187	0.098203	-0.699913	-0.227677	0.025680	-0.784258	-0.179228	0.041353	-0.706211	-0.145035	0.029606	-0.710422	
503	2.5150	-0.244354	1.619728	-0.556652	-0.203520	1.591707	-0.793995	-0.184409	1.590616	-0.354131	-0.096283	1.561996	-0.576206	-0.082457	1.099110	-0.455351	-0.093913	1.090946	-0.681596	-0.144979	1.161027	-0.403216	-0.177169	1.155093	-0.728650	-0.269647	1.125654	-0.499246	-0.277964	1.122507	-0.608589	-0.279711	1.129429	-0.553123	-0.149285	0.894921	-0.365928	-0.133836	0.837706	-0.355952	-0.071528	0.847715	-0.371230	-0.079172	0.907686	-0.383641	-0.260952	0.341701	-0.343754	-0.277260	0.302773	-0.351759	-0.219115	0.286318	-0.357601	-0.207238	0.324962	-0.352907	-0.384335	0.095723	-0.399657	-0.211376	0.025520	-0.329814	-0.165529	0.041049	-0.423241	-0.133710	0.029789	-0.420837	-0.165459	0.839906	-0.763639	-0.140643	0.783913	-0.772563	-0.079043	0.805121	-0.772447	-0.096026	0.861346	-0.764328	-0.275638	0.323099	-0.764248	-0.292802	0.287005	-0.756707	-0.233356	0.265937	-0.755323	-0.223615	0.308596	-0.764181	-0.395798	0.098915	-0.699300	-0.227718	0.025801	-0.783881	-0.179088	0.041322	-0.706122	-0.144956	0.029609	-0.710409	
504	2.5200	-0.244305	1.621427	-0.556835	-0.203578	1.593413	-0.794207	-0.184269	1.592211	-0.354279	-0.096220	1.563975	-0.576472	-0.081981	1.101060	-0.455544	-0.093566	1.092967	-0.681615	-0.143922	1.163260	-0.403321	-0.176378	1.157720	-0.728800	-0.269163	1.127821	-0.499122	-0.277549	1.124658	-0.608604	-0.279314	1.131399	-0.553072	-0.149544	0.896722	-0.366001	-0.134251	0.839458	-0.355974	-0.071913	0.849287	-0.371221	-0.079388	0.909279	-0.383657	-0.261657	0.343142	-0.344083	-0.277812	0.304068	-0.352081	-0.219587	0.287769	-0.357669	-0.207870	0.326461	-0.353017	-0.383893	0.097000	-0.399914	-0.211441	0.025653	-0.330079	-0.165510	0.041029	-0.423245	-0.133696	0.029791	-0.420822	-0.165783	0.841727	-0.763363	-0.141127	0.785658	-0.772210	-0.079462	0.806690	-0.772184	-0.096264	0.863009	-0.764142	-0.276157	0.324367	-0.763645	-0.293209	0.288263	-0.756109	-0.233701	0.267314	-0.754886	-0.224093	0.310030	-0.763690	-0.395239	0.099972	-0.698897	-0.227705	0.025936	-0.783490	-0.178939	0.041293	-0.706037	-0.144890	0.029609	-0.710384	
505	2.5250	-0.244276	1.623597	-0.557033	-0.203648	1.595589	-0.794414	-0.184140	1.594286	-0.354447	-0.096193	1.566403	-0.576727	-0.081440	1.103471	-0.455732	-0.093124	1.095444	-0.681605	-0.142833	1.165895	-0.403446	-0.175564	1.160464	-0.728925	-0.268598	1.130443	-0.499001	-0.276979	1.127405	-0.608625	-0.278840	1.133846	-0.553018	-0.149739	0.898982	-0.366084	-0.134600	0.841651	-0.355974	-0.072232	0.851295	-0.371217	-0.079541	0.911305	-0.383682	-0.262345	0.344998	-0.344379	-0.278339	0.305803	-0.352345	-0.220022	0.289674	-0.357644	-0.208498	0.328367	-0.353079	-0.383244	0.098742	-0.400021	-0.211465	0.025806	-0.330374	-0.165466	0.041017	-0.423246	-0.133686	0.029795	-0.420811	-0.166049	0.844004	-0.763081	-0.141573	0.787843	-0.771839	-0.079833	0.808667	-0.771861	-0.096449	0.865088	-0.763918	-0.276658	0.325998	-0.763142	-0.293599	0.289835	-0.755611	-0.234015	0.269061	-0.754534	-0.224559	0.311842	-0.763271	-0.394583	0.101423	-0.698695	-0.227638	0.026087	-0.783090	-0.178785	0.041263	-0.705958	-0.144838	0.029611	-0.710350	
506	2.5300	-0.244262	1.626217	-0.557245	-0.203726	1.598206	-0.794618	-0.184022	1.596814	-0.354630	-0.096202	1.569256	-0.576971	-0.080844	1.106318	-0.455904	-0.092601	1.098333	-0.681565	-0.141757	1.168899	-0.403585	-0.174743	1.163607	-0.728915	-0.267966	1.133479	-0.498887	-0.276347	1.130470	-0.608704	-0.278313	1.136720	-0.552980	-0.149865	0.901674	-0.366206	-0.134890	0.844262	-0.355947	-0.072490	0.853709	-0.371214	-0.079626	0.913739	-0.383714	-0.263001	0.347258	-0.344635	-0.278837	0.307939	-0.352576	-0.220435	0.292021	-0.357540	-0.209105	0.330668	-0.353032	-0.382380	0.100925	-0.399985	-0.211447	0.025993	-0.330697	-0.165398	0.041011	-0.423245	-0.133682	0.029801	-0.420806	-0.166263	0.846706	-0.762801	-0.141998	0.790441	-0.771454	-0.080172	0.811023	-0.771490	-0.096578	0.867548	-0.763661	-0.277147	0.327976	-0.762760	-0.293956	0.291750	-0.755243	-0.234290	0.271153	-0.754271	-0.225000	0.314016	-0.762944	-0.393850	0.103199	-0.698660	-0.227498	0.026254	-0.782681	-0.178629	0.041236	-0.705885	-0.144797	0.029612	-0.710306	
507	2.5350	-0.244262	1.629251	-0.557471	-0.203815	1.601229	-0.794818	-0.183913	1.599768	-0.354824	-0.096246	1.572513	-0.577208	-0.080201	1.109578	-0.456044	-0.092000	1.101603	-0.681496	-0.140717	1.172244	-0.403722	-0.173835	1.167098	-0.728844	-0.267284	1.136893	-0.498777	-0.275728	1.133935	-0.608676	-0.277736	1.139981	-0.552969	-0.149912	0.904761	-0.366307	-0.135110	0.847267	-0.355899	-0.072688	0.856487	-0.371212	-0.079636	0.916548	-0.383749	-0.263622	0.349887	-0.344847	-0.279301	0.310419	-0.352780	-0.220792	0.294769	-0.357348	-0.209654	0.333356	-0.352862	-0.381263	0.103472	-0.399950	-0.211388	0.026218	-0.331047	-0.165320	0.040985	-0.423230	-0.133685	0.029810	-0.420802	-0.166436	0.849819	-0.762526	-0.142415	0.793433	-0.771073	-0.080491	0.813737	-0.771087	-0.096662	0.870374	-0.763374	-0.277623	0.330263	-0.762493	-0.294272	0.293967	-0.754981	-0.234518	0.273559	-0.754098	-0.225410	0.316517	-0.762709	-0.392936	0.105287	-0.698762	-0.227303	0.026455	-0.782255	-0.178467	0.041213	-0.705817	-0.144765	0.029613	-0.710256	
508	2.5400	-0.244275	1.632638	-0.557706	-0.203918	1.604623	-0.795009	-0.183814	1.603118	-0.355028	-0.096321	1.576129	-0.577437	-0.079526	1.113218	-0.456145	-0.091322	1.105239	-0.681403	-0.139718	1.175932	-0.403843	-0.173272	1.170779	-0.728840	-0.266557	1.140650	-0.498684	-0.274956	1.137680	-0.608867	-0.277108	1.143594	-0.552933	-0.149879	0.908191	-0.366319	-0.135275	0.850626	-0.355823	-0.072832	0.859611	-0.371204	-0.079576	0.919685	-0.383779	-0.264193	0.352846	-0.345014	-0.279715	0.313203	-0.352952	-0.221071	0.297886	-0.357057	-0.210139	0.336436	-0.352616	-0.379906	0.106322	-0.399905	-0.211289	0.026479	-0.331415	-0.165234	0.040938	-0.423200	-0.133695	0.029818	-0.420799	-0.166568	0.853312	-0.762258	-0.142824	0.796791	-0.770696	-0.080793	0.816784	-0.770670	-0.096697	0.873542	-0.763059	-0.278083	0.332834	-0.762332	-0.294548	0.296431	-0.754830	-0.234701	0.276266	-0.754020	-0.225791	0.319284	-0.762596	-0.391825	0.107629	-0.698949	-0.227072	0.026679	-0.781833	-0.178299	0.041193	-0.705756	-0.144742	0.029614	-0.710200	
509	2.5450	-0.244300	1.636336	-0.557950	-0.204043	1.608348	-0.795187	-0.183720	1.606826	-0.355247	-0.096423	1.580077	-0.577662	-0.078824	1.117197	-0.456195	-0.090578	1.109208	-0.681292	-0.138747	1.179966	-0.403905	-0.172572	1.174815	-0.728651	-0.265791	1.144719	-0.498604	-0.274189	1.141844	-0.608849	-0.276448	1.147542	-0.552934	-0.149779	0.911913	-0.366243	-0.135380	0.854287	-0.355719	-0.072928	0.863037	-0.371179	-0.079454	0.923123	-0.383796	-0.264696	0.356069	-0.345128	-0.280069	0.316218	-0.353134	-0.221247	0.301323	-0.356673	-0.210547	0.339864	-0.352294	-0.378351	0.109406	-0.399883	-0.211146	0.026781	-0.331800	-0.165141	0.040870	-0.423153	-0.133714	0.029829	-0.420796	-0.166660	0.857148	-0.762009	-0.143216	0.800481	-0.770332	-0.081077	0.820132	-0.770244	-0.096673	0.877007	-0.762727	-0.278519	0.335662	-0.762267	-0.294780	0.299114	-0.754754	-0.234833	0.279242	-0.754041	-0.226138	0.322322	-0.762568	-0.390638	0.110271	-0.699246	-0.226784	0.026961	-0.781415	-0.178119	0.041177	-0.705698	-0.144725	0.029617	-0.710140	
510	2.5500	-0.244340	1.640290	-0.558198	-0.204191	1.612368	-0.795347	-0.183634	1.610858	-0.355483	-0.096556	1.584312	-0.577882	-0.078105	1.121475	-0.456183	-0.089790	1.113459	-0.681161	-0.137791	1.184331	-0.403904	-0.171812	1.179048	-0.728707	-0.264998	1.149056	-0.498528	-0.273378	1.146112	-0.608948	-0.275750	1.151764	-0.552925	-0.149626	0.915884	-0.366070	-0.135446	0.858218	-0.355572	-0.072986	0.866725	-0.371123	-0.079288	0.926824	-0.383786	-0.265112	0.359519	-0.345164	-0.280317	0.319451	-0.353282	-0.221312	0.304997	-0.356204	-0.210843	0.343613	-0.351834	-0.376556	0.112647	-0.400021	-0.210964	0.027122	-0.332189	-0.165047	0.040782	-0.423083	-0.133742	0.029845	-0.420790	-0.166711	0.861282	-0.761792	-0.143585	0.804466	-0.770003	-0.081334	0.823757	-0.769818	-0.096612	0.880742	-0.762393	-0.278938	0.338718	-0.762279	-0.294969	0.302049	-0.754748	-0.234912	0.282455	-0.754148	-0.226456	0.325600	-0.762607	-0.389232	0.113086	-0.699643	-0.226451	0.027304	-0.781012	-0.177922	0.041166	-0.705644	-0.144714	0.029620	-0.710076	
511	2.5550	-0.244395	1.644451	-0.558448	-0.204362	1.616637	-0.795485	-0.183559	1.615174	-0.355736	-0.096713	1.588795	-0.578095	-0.077375	1.126002	-0.456109	-0.088962	1.117956	-0.681016	-0.136846	1.189002	-0.403828	-0.170953	1.183522	-0.728600	-0.264177	1.153633	-0.498459	-0.272500	1.150847	-0.609100	-0.275009	1.156252	-0.552914	-0.149443	0.920059	-0.365793	-0.135486	0.862368	-0.355377	-0.073017	0.870639	-0.371022	-0.079097	0.930742	-0.383739	-0.265439	0.363130	-0.345167	-0.280421	0.322874	-0.353354	-0.221237	0.308868	-0.355644	-0.211031	0.347603	-0.351352	-0.374523	0.115997	-0.400326	-0.210742	0.027490	-0.332569	-0.164951	0.040674	-0.422989	-0.133776	0.029870	-0.420782	-0.166726	0.865676	-0.761609	-0.143924	0.808712	-0.769717	-0.081562	0.827626	-0.769400	-0.096489	0.884736	-0.762056	-0.279329	0.341956	-0.762312	-0.295121	0.305151	-0.754763	-0.234937	0.285878	-0.754340	-0.226751	0.329101	-0.762742	-0.387656	0.116209	-0.700210	-0.226061	0.027704	-0.780645	-0.177704	0.041158	-0.705594	-0.144709	0.029624	-0.710009	
